<?xml version="1.0" encoding="utf-8"?>
<!-- Generator: Adobe Illustrator 21.0.0, SVG Export Plug-In . SVG Version: 6.00 Build 0)  -->
<svg version="1.1" id="Layer_1" xmlns="http://www.w3.org/2000/svg" xmlns:xlink="http://www.w3.org/1999/xlink" x="0px" y="0px"
	 viewBox="0 0 157.3 49.3" style="enable-background:new 0 0 157.3 49.3;" xml:space="preserve">
<style type="text/css">
	.st0{fill:none;stroke:#FFFFFF;stroke-miterlimit:10;}
	.st1{fill:#DBAF63;}
	.st2{fill:#FFFFFF;}
	.st3{fill:none;stroke:#FFFFFF;stroke-width:0.75;stroke-linecap:round;stroke-miterlimit:10;}
	.st4{fill:none;stroke:#FFFFFF;stroke-width:1.5;stroke-miterlimit:10;}
	.st5{fill:#D7D7D7;}
</style>
<path class="st0" d="M22.6,76.8"/>
<g>
	<polygon class="st1" points="9.4,20 9.4,43.3 45.7,43.3 45.7,20 27.5,13.6 	"/>
	<polygon class="st1" points="45.7,17.3 45.7,7 9.4,7 9.4,17.3 27.5,10.9 	"/>
	<polygon class="st2" points="27.5,10.9 9.4,17.3 9.4,20 27.5,13.6 45.7,20 45.7,17.3 	"/>
	<line class="st3" x1="27.5" y1="12" x2="27.5" y2="20.6"/>
	<path class="st2" d="M27.5,20c-2.3,0-4.2,1.9-4.2,4.2h8.4C31.7,21.9,29.8,20,27.5,20z"/>
	<g>
		<g>
			<line class="st4" x1="15.4" y1="32.3" x2="15.4" y2="43.3"/>
			<polyline class="st4" points="19.7,43.3 19.7,39.1 15.4,39.1 			"/>
		</g>
		<g>
			<line class="st4" x1="39.6" y1="32.3" x2="39.6" y2="43.3"/>
			<polyline class="st4" points="35.4,43.3 35.4,39.1 39.6,39.1 			"/>
		</g>
	</g>
	<g>
		<polyline class="st4" points="23.2,43.3 23.2,39.9 31.8,39.9 31.8,43.3 		"/>
		<line class="st4" x1="19.8" y1="36.1" x2="35.2" y2="36.1"/>
		<line class="st4" x1="23.2" y1="39.9" x2="23.2" y2="36.1"/>
		<line class="st4" x1="31.8" y1="39.9" x2="31.8" y2="36.1"/>
	</g>
</g>
<path class="st5" d="M59,25.2c0.2,0,0.4,0.2,0.4,0.4v6.3H60c0.5,0,1,0,1.6,0c0.4,0,0.8-0.1,1.2-0.1c0.2,0,0.5,0.1,0.5,0.4l0,0.3
	c0,0.2-0.1,0.4-0.4,0.5C62.5,32.9,62,33,61.6,33c-0.6,0-1.4,0.1-2.1,0.1h-0.9c-0.2,0-0.4-0.2-0.4-0.4v-7c0-0.2,0.2-0.4,0.4-0.4H59z
	 M67.9,36.5h-0.5c-0.2,0-0.4-0.2-0.4-0.4v-6.4c0-0.2-0.2-0.4-0.4-0.4h-0.7c-0.2,0-0.4,0.2-0.4,0.4v5.8c0,0.2-0.2,0.4-0.4,0.4h-0.5
	c-0.2,0-0.4-0.2-0.4-0.4V24.7c0-0.2,0.2-0.4,0.4-0.4H65c0.2,0,0.4,0.2,0.4,0.4v3c0,0.2,0.2,0.4,0.4,0.4h0.7c0.2,0,0.4-0.2,0.4-0.4
	v-3.2c0-0.2,0.2-0.4,0.4-0.4h0.5c0.2,0,0.4,0.2,0.4,0.4v11.6C68.4,36.3,68.2,36.5,67.9,36.5z"/>
<path class="st1" d="M80.8,21.5c-0.1,0.2-0.3,0.5-0.6,0.8c-0.3,0.4-0.7,0.7-1.1,1c-0.5,0.4-1.1,0.8-1.8,1.3
	c-0.5,0.4-1.1,0.8-1.6,1.1c-0.2,0.1-0.5,0.1-0.7-0.1l-0.7-0.9c-0.2-0.2-0.1-0.6,0.1-0.7c0.6-0.4,1.2-0.8,1.8-1.2
	c0.7-0.5,1.3-1,1.8-1.4c0.3-0.3,0.6-0.6,0.8-0.8c0.2-0.3,0.3-0.6,0.5-0.8c0.1-0.3,0.2-0.6,0.2-1c0-0.3,0-0.7,0-1.2v-0.2h-4.3
	c-0.3,0-0.5-0.2-0.5-0.5v-1c0-0.3,0.2-0.5,0.5-0.5h10.7c0.3,0,0.5,0.2,0.5,0.5v1c0,0.3-0.2,0.5-0.5,0.5h-4v0.1c0,0.4,0,0.7,0,1
	c0,0.3,0,0.6,0.1,0.8c0.1,0.3,0.2,0.5,0.3,0.7c0.2,0.2,0.4,0.5,0.7,0.7c0.6,0.5,1.2,1,1.9,1.4c0.5,0.4,1.1,0.7,1.7,1.1
	c0.2,0.2,0.3,0.5,0.1,0.7L86.1,25c-0.2,0.2-0.5,0.3-0.7,0.1c-0.5-0.3-1-0.7-1.5-1c-0.6-0.4-1.2-0.9-1.7-1.3
	c-0.3-0.3-0.6-0.5-0.9-0.7C81,21.9,80.9,21.6,80.8,21.5L80.8,21.5z M92,27.1V36c0,0.3-0.2,0.5-0.5,0.5h-13c-0.3,0-0.5-0.2-0.5-0.5
	v-8.9c0-0.3,0.2-0.5,0.5-0.5h1.4c0.3,0,0.5,0.2,0.5,0.5v1.8c0,0.3,0.2,0.5,0.5,0.5h8.2c0.3,0,0.5-0.2,0.5-0.5v-1.8
	c0-0.3,0.2-0.5,0.5-0.5h1.4C91.8,26.6,92,26.8,92,27.1z M89.6,33.9V32c0-0.3-0.2-0.5-0.5-0.5h-8.2c-0.3,0-0.5,0.2-0.5,0.5v1.9
	c0,0.3,0.2,0.5,0.5,0.5h8.2C89.4,34.4,89.6,34.2,89.6,33.9z M89.6,25V14.5c0-0.3,0.2-0.5,0.5-0.5h1.4c0.3,0,0.5,0.2,0.5,0.5V25
	c0,0.3-0.2,0.5-0.5,0.5h-1.4C89.9,25.5,89.6,25.3,89.6,25z"/>
<g>
	<path class="st5" d="M104.1,35.5v-6.6c0-0.2-0.2-0.4-0.4-0.4h-6.5c-0.2,0-0.4-0.2-0.4-0.4v-0.8c0-0.2,0.2-0.4,0.4-0.4h4.2
		c0.2,0,0.4-0.1,0.4-0.3c0.1-0.4,0.2-0.8,0.3-1.2c0.1-0.5,0.2-1,0.2-1.5c0.1-0.5,0.1-0.9,0.1-1.4c0-0.4,0-0.8,0-1.1v-0.7h-3.7
		c-0.2,0-0.4-0.2-0.4-0.4v-0.9c0-0.2,0.2-0.4,0.4-0.4h5.2c0.2,0,0.4,0.2,0.4,0.4v0.9c0,1.1-0.1,2.2-0.2,3.4
		c-0.1,0.9-0.2,1.8-0.4,2.7c-0.1,0.3,0.1,0.5,0.4,0.5h4.1c0.2,0,0.4-0.1,0.4-0.3c0.2-1,0.4-1.9,0.4-2.7c0.1-0.9,0.1-1.7,0.1-2.4
		v-0.8h-3.5c-0.2,0-0.4-0.2-0.4-0.4v-0.9c0-0.2,0.2-0.4,0.4-0.4h5c0.2,0,0.4,0.2,0.4,0.4v1c0,1,0,2-0.1,3.1
		c-0.1,0.9-0.2,1.9-0.4,2.9c-0.1,0.3,0.1,0.5,0.4,0.5h2c0.2,0,0.4,0.2,0.4,0.4v0.8c0,0.2-0.2,0.4-0.4,0.4h-6.5
		c-0.2,0-0.4,0.2-0.4,0.4v6.6c0,0.2-0.2,0.4-0.4,0.4h-1.1C104.3,35.9,104.1,35.7,104.1,35.5z"/>
	<path class="st5" d="M116,31.3V20.4c0-0.2,0.2-0.4,0.4-0.4h7.7c0.2,0,0.4,0.2,0.4,0.4v10.9c0,0.2-0.2,0.4-0.4,0.4h-7.7
		C116.2,31.7,116,31.5,116,31.3z M118.3,30.1h3.8c0.2,0,0.4-0.2,0.4-0.4v-7.6c0-0.2-0.2-0.4-0.4-0.4h-3.8c-0.2,0-0.4,0.2-0.4,0.4
		v7.6C117.9,29.9,118.1,30.1,118.3,30.1z M127.7,36.1V18.8c0-0.2,0.2-0.4,0.4-0.4h1.1c0.2,0,0.4,0.2,0.4,0.4v17.3
		c0,0.2-0.2,0.4-0.4,0.4h-1.1C127.9,36.5,127.7,36.3,127.7,36.1z"/>
	<path class="st5" d="M133.6,31.3c-0.1-0.2-0.1-0.5,0.1-0.6c0.9-0.5,1.7-1,2.3-1.4c0.7-0.5,1.3-0.9,1.8-1.3c0.5-0.4,0.9-0.8,1.1-1.1
		c0.3-0.3,0.5-0.7,0.6-1c0.1-0.3,0.2-0.7,0.3-1.1c0-0.4,0-0.8,0-1.3v-1.4c0-0.2-0.2-0.4-0.4-0.4h-5.4c-0.2,0-0.4-0.2-0.4-0.4v-0.8
		c0-0.2,0.2-0.4,0.4-0.4h7.3c0.2,0,0.4,0.2,0.4,0.4v3c0,0.6,0,1.1,0,1.6c0,0.5-0.1,0.9-0.3,1.4c-0.2,0.4-0.4,0.8-0.7,1.3
		c-0.3,0.4-0.7,0.9-1.3,1.3c-0.6,0.5-1.3,1-2.1,1.6c-0.8,0.5-1.6,1.1-2.7,1.7c-0.2,0.1-0.4,0.1-0.6-0.1L133.6,31.3z M145.6,36.1
		V18.8c0-0.2,0.2-0.4,0.4-0.4h1.1c0.2,0,0.4,0.2,0.4,0.4v17.3c0,0.2-0.2,0.4-0.4,0.4H146C145.8,36.5,145.6,36.3,145.6,36.1z"/>
</g>
</svg>
